<svg width="27" height="27" viewBox="0 0 27 27" fill="none" xmlns="http://www.w3.org/2000/svg">
<path fill-rule="evenodd" clip-rule="evenodd" d="M10.2799 2.3567C6.85019 3.22619 4.02683 5.61671 2.56988 8.76827H7.66239C7.93261 7.29504 8.32266 5.95828 8.80883 4.8228C9.22121 3.85967 9.71317 3.01693 10.2799 2.3567ZM7.43497 10.2683H1.999C1.67449 11.3392 1.5 12.4754 1.5 13.6523C1.5 14.8293 1.6745 15.9655 1.99903 17.0365H7.43498C7.30412 15.9566 7.23473 14.8214 7.23473 13.6524C7.23473 12.4833 7.30412 11.3481 7.43497 10.2683ZM8.94661 17.0365C8.80928 15.9695 8.73473 14.8336 8.73473 13.6524C8.73473 12.4712 8.80928 11.3352 8.9466 10.2683H17.3581C17.4954 11.3352 17.57 12.4712 17.57 13.6524C17.57 14.8336 17.4954 15.9695 17.3581 17.0365H8.94661ZM7.6624 18.5365H2.56992C4.02687 21.688 6.85018 24.0784 10.2799 24.9479C9.71312 24.2877 9.22119 23.445 8.80883 22.4819C8.32267 21.3464 7.93262 20.0097 7.6624 18.5365ZM16.0249 24.9479C19.4545 24.0784 22.2778 21.6879 23.7347 18.5365H18.6423C18.3721 20.0097 17.9821 21.3464 17.4959 22.4819C17.0835 23.445 16.5916 24.2877 16.0249 24.9479ZM17.1155 18.5365C16.867 19.8015 16.526 20.9362 16.117 21.8915C15.6732 22.928 15.164 23.7189 14.6368 24.2397C14.1127 24.7574 13.612 24.9718 13.1524 24.9718C12.6927 24.9718 12.192 24.7574 11.668 24.2397C11.1408 23.7189 10.6316 22.928 10.1878 21.8915C9.77871 20.9362 9.43777 19.8015 9.18919 18.5365H17.1155ZM18.8697 17.0365H24.3056C24.6302 15.9655 24.8047 14.8293 24.8047 13.6523C24.8047 12.4754 24.6302 11.3392 24.3057 10.2683H18.8698C19.0006 11.3481 19.07 12.4833 19.07 13.6524C19.07 14.8214 19.0006 15.9566 18.8697 17.0365ZM18.6423 8.76827H23.7348C22.2778 5.61674 19.4545 3.22623 16.0248 2.35672C16.5916 3.01695 17.0835 3.85968 17.4959 4.8228C17.9821 5.95828 18.3721 7.29504 18.6423 8.76827ZM17.1155 8.76827H9.18918C9.43777 7.50324 9.7787 6.36857 10.1878 5.4132C10.6316 4.37667 11.1408 3.58581 11.668 3.06499C12.192 2.54734 12.6927 2.33296 13.1524 2.33296C13.612 2.33296 14.1127 2.54734 14.6368 3.06499C15.164 3.58581 15.6732 4.37667 16.117 5.4132C16.526 6.36857 16.867 7.50324 17.1155 8.76827ZM13.1523 0.5C5.8885 0.5 0 6.3885 0 13.6523C0 20.9162 5.8885 26.8047 13.1523 26.8047C20.4162 26.8047 26.3047 20.9162 26.3047 13.6523C26.3047 6.3885 20.4162 0.5 13.1523 0.5Z" fill="#9C9BB3"/>
</svg>
